<?xml version="1.0" encoding="UTF-8"?>
<svg version="1.1" id="Livello_1" xmlns="http://www.w3.org/2000/svg" xmlns:xlink="http://www.w3.org/1999/xlink" x="0px" y="0px" viewBox="0 0 399.69 70.87" style="enable-background:new 0 0 399.69 70.87;" xml:space="preserve">
<style type="text/css">
	.st0{fill:#9EBD42;}
	.st1{fill:#547644;}
	.st2{fill:#3F3F3F;}
</style>
<g>
	<g>
		<path class="st0" d="M43.29,26.52h10.64v20.93c0,0-12.39,3.76-24.79,3.76S0.97,44.31,0.97,26.52S13.62,0.08,29.77,0.08    c16.15,0,21.03,4.14,21.03,4.14v8.14c0,0-8.14-4.39-20.78-4.39c-12.65,0-18.15,7.51-18.15,17.66c0,10.15,7.64,17.67,17.78,17.67    s13.65-1.75,13.65-1.75V26.52z"/>
	</g>
	<g>
		<path class="st0" d="M142.46,31.95c-1.93-2.02-3.47-2.35-3.47-2.35s13.43-2.59,13.43-14.49c0-11.9-15.4-14.16-21.41-14.16h-22.04    v49.11h10.67V31.29h7.84c2.58,0,4.13,1.83,4.74,2.54c0.61,0.71,12.72,16.24,12.72,16.24h12.91    C157.86,50.07,144.38,33.97,142.46,31.95 M119.68,23.68V8.97h12.82c4.6,0,8.68,1.5,8.68,7.36c0,5.85-6.48,7.35-8.54,7.35H119.68z"/>
	</g>
	<g>
		<polygon class="st0" points="165.05,50.07 165.05,0.96 177.33,0.96 206,37.79 206,0.96 216.64,0.96 216.64,50.07 204.12,50.07     175.44,13.58 175.44,50.07   "/>
	</g>
	<g>
		<polygon class="st0" points="229.69,0.96 229.69,50.07 271.29,50.07 271.29,42.24 240.26,42.24 240.26,29.23 266.79,29.23     266.79,21.33 240.26,21.33 240.26,8.93 271.29,8.93 271.29,0.96   "/>
	</g>
	<g>
		<path class="st0" d="M315.05,31.95c-1.93-2.02-3.48-2.35-3.48-2.35s13.43-2.59,13.43-14.49c0-11.9-15.4-14.16-21.41-14.16h-22.04    v49.11h10.67V31.29h7.84c2.59,0,4.13,1.83,4.75,2.54c0.61,0.71,12.72,16.24,12.72,16.24h12.91    C330.45,50.07,316.98,33.97,315.05,31.95 M292.28,23.68V8.97h12.82c4.6,0,8.68,1.5,8.68,7.36c0,5.85-6.48,7.35-8.54,7.35H292.28z"/>
	</g>
	<g>
		<path class="st0" d="M362.24,0.04c-18.55,0-27.47,11.41-27.47,25.48c0,14.07,8.92,25.48,27.47,25.48s27.46-11.41,27.46-25.48    C389.71,11.44,380.79,0.04,362.24,0.04 M362.24,42.76c-12.82,0-16.81-7.72-16.81-17.25c0-9.52,3.99-17.24,16.81-17.24    c12.82,0,16.81,7.72,16.81,17.24C379.05,35.04,375.06,42.76,362.24,42.76"/>
	</g>
	<g>
		<rect x="82.55" y="43.41" class="st1" width="4.51" height="6.16"/>
	</g>
	<g>
		<rect x="75.78" y="43.41" class="st1" width="4.51" height="6.16"/>
	</g>
	<g>
		<rect x="82.55" y="34.91" class="st1" width="4.51" height="6.16"/>
	</g>
	<g>
		<rect x="75.78" y="34.91" class="st1" width="4.51" height="6.16"/>
	</g>
	<g>
		<polygon class="st1" points="81.42,2.9 55.37,44.37 63.83,44.37 81.42,15.8 99.01,44.37 107.46,44.37   "/>
	</g>
	<g>
		<path class="st0" d="M388.61,4.98c0-0.68,0.13-1.33,0.39-1.93c0.25-0.6,0.61-1.13,1.06-1.57c0.45-0.45,0.98-0.8,1.59-1.06    c0.61-0.26,1.26-0.38,1.96-0.38c0.71,0,1.37,0.12,1.98,0.38c0.61,0.26,1.14,0.61,1.59,1.06c0.45,0.44,0.8,0.97,1.06,1.57    c0.26,0.6,0.39,1.25,0.39,1.93c0,0.67-0.13,1.31-0.39,1.91c-0.26,0.6-0.61,1.12-1.06,1.57c-0.45,0.44-0.98,0.8-1.59,1.06    c-0.61,0.26-1.27,0.39-1.98,0.39c-0.7,0-1.36-0.13-1.96-0.39c-0.61-0.26-1.14-0.62-1.59-1.06s-0.8-0.97-1.06-1.57    C388.74,6.29,388.61,5.65,388.61,4.98 M389.82,4.98c0,0.53,0.1,1.04,0.29,1.51c0.2,0.48,0.46,0.89,0.8,1.24    c0.34,0.34,0.73,0.62,1.2,0.82c0.46,0.2,0.98,0.3,1.53,0.3c0.55,0,1.07-0.1,1.54-0.3c0.47-0.2,0.88-0.48,1.21-0.82    c0.34-0.35,0.61-0.76,0.8-1.24c0.2-0.47,0.29-0.98,0.29-1.51c0-0.54-0.09-1.06-0.29-1.54c-0.19-0.48-0.46-0.9-0.8-1.25    c-0.34-0.36-0.75-0.64-1.21-0.84c-0.47-0.2-0.98-0.31-1.54-0.31c-0.55,0-1.06,0.1-1.53,0.31c-0.46,0.2-0.86,0.48-1.2,0.84    c-0.34,0.36-0.6,0.77-0.8,1.25C389.92,3.92,389.82,4.43,389.82,4.98 M393.03,5.72v1.96h-1.52V1.97h2c0.45,0,0.84,0.04,1.15,0.13    c0.31,0.09,0.56,0.21,0.75,0.37c0.19,0.16,0.32,0.34,0.4,0.55c0.08,0.21,0.12,0.43,0.12,0.67c0,0.37-0.09,0.71-0.27,0.99    c-0.18,0.29-0.45,0.51-0.79,0.67c0.11,0.05,0.21,0.12,0.3,0.19c0.09,0.08,0.16,0.17,0.22,0.28l0.86,1.86h-1.41    c-0.24,0-0.41-0.1-0.5-0.31l-0.62-1.44c-0.04-0.09-0.09-0.15-0.14-0.17c-0.05-0.02-0.14-0.04-0.24-0.04H393.03z M393.03,4.59h0.5    c0.38,0,0.63-0.08,0.78-0.24c0.14-0.16,0.21-0.34,0.21-0.55c0-0.21-0.09-0.38-0.25-0.53c-0.17-0.14-0.42-0.21-0.76-0.21h-0.49    V4.59z"/>
	</g>
	<g>
		<path class="st2" d="M18.23,66.67h-5.89l-1.36,3.51H9.05L14.5,55.9h1.58l5.44,14.28h-1.93L18.23,66.67z M12.9,65.08h4.76    l-2.38-6.23L12.9,65.08z"/>
		<path class="st2" d="M51.76,64.29h-2.71v5.89h-1.82V55.9h5.33c0.59,0,1.15,0.11,1.68,0.34s0.99,0.53,1.37,0.91    c0.39,0.38,0.69,0.83,0.92,1.34c0.23,0.51,0.34,1.05,0.34,1.61c0,0.83-0.17,1.51-0.5,2.03c-0.33,0.52-0.69,0.93-1.09,1.23    c-0.46,0.36-0.99,0.63-1.56,0.81l3.49,6.01h-2.04L51.76,64.29z M49.05,62.7h3.51c0.33,0,0.65-0.07,0.95-0.21    c0.3-0.14,0.57-0.32,0.8-0.55c0.23-0.23,0.41-0.51,0.54-0.83c0.13-0.32,0.2-0.66,0.2-1.02c0-0.36-0.07-0.7-0.2-1.02    c-0.13-0.32-0.31-0.6-0.54-0.83c-0.23-0.23-0.49-0.42-0.8-0.55s-0.62-0.21-0.95-0.21h-3.51V62.7z"/>
		<path class="st2" d="M88.24,64.29h-2.71v5.89h-1.82V55.9h5.33c0.59,0,1.15,0.11,1.68,0.34s0.99,0.53,1.37,0.91    c0.39,0.38,0.69,0.83,0.92,1.34c0.23,0.51,0.34,1.05,0.34,1.61c0,0.83-0.17,1.51-0.5,2.03c-0.33,0.52-0.69,0.93-1.09,1.23    c-0.46,0.36-0.99,0.63-1.56,0.81l3.49,6.01h-2.04L88.24,64.29z M85.53,62.7h3.51c0.33,0,0.65-0.07,0.95-0.21    c0.3-0.14,0.57-0.32,0.8-0.55c0.23-0.23,0.41-0.51,0.54-0.83c0.13-0.32,0.2-0.66,0.2-1.02c0-0.36-0.07-0.7-0.2-1.02    c-0.13-0.32-0.31-0.6-0.54-0.83c-0.23-0.23-0.49-0.42-0.8-0.55s-0.62-0.21-0.95-0.21h-3.51V62.7z"/>
		<path class="st2" d="M129.5,68.6v1.58h-9.3V55.9h9.07v1.58h-7.25v4.54h6.69v1.58h-6.69v4.99H129.5z"/>
		<path class="st2" d="M167.11,63.04c0,1.03-0.18,1.97-0.54,2.85s-0.85,1.62-1.47,2.26s-1.34,1.13-2.17,1.49    c-0.82,0.36-1.7,0.54-2.64,0.54h-3.96V55.9h3.96c0.94,0,1.82,0.18,2.64,0.54s1.54,0.86,2.17,1.49s1.11,1.39,1.47,2.27    C166.93,61.08,167.11,62.03,167.11,63.04z M160.3,68.6c0.65,0,1.28-0.14,1.88-0.42s1.14-0.67,1.6-1.17    c0.46-0.5,0.83-1.08,1.1-1.76c0.27-0.68,0.41-1.41,0.41-2.21c0-0.78-0.14-1.52-0.41-2.2c-0.27-0.68-0.64-1.27-1.1-1.77    c-0.46-0.5-1-0.89-1.6-1.17c-0.61-0.28-1.23-0.42-1.88-0.42h-2.15V68.6H160.3z"/>
		<path class="st2" d="M200.63,66.67h-5.89l-1.36,3.51h-1.93l5.45-14.28h1.58l5.44,14.28h-1.93L200.63,66.67z M195.3,65.08h4.76    l-2.38-6.23L195.3,65.08z"/>
		<path class="st2" d="M241.77,55.9h1.47v14.28h-1.82v-9.63L237,70.18h-1.13l-4.42-9.63v9.63h-1.82V55.9h1.47l5.33,11.45    L241.77,55.9z"/>
		<path class="st2" d="M280.07,68.6v1.58h-9.3V55.9h9.07v1.58h-7.25v4.54h6.69v1.58h-6.69v4.99H280.07z"/>
		<path class="st2" d="M317.45,55.9v14.28h-1.58l-7.14-10.77v10.77h-1.82V55.9h1.58l7.14,10.77V55.9H317.45z"/>
		<path class="st2" d="M353.94,57.48h-4.31v12.7h-1.82v-12.7h-4.31V55.9h10.43V57.48z"/>
		<path class="st2" d="M381.8,70.18h-1.82V55.9h1.82V70.18z"/>
	</g>
</g>
</svg>